<svg width="28" height="34" viewBox="0 0 28 34" fill="none" xmlns="http://www.w3.org/2000/svg">
<path d="M26.9337 0.511719H12.3131C12.1192 0.511719 11.9332 0.588738 11.7961 0.725833C11.6591 0.862929 11.582 1.04887 11.582 1.24275V33.4082H26.6648C27.217 33.4082 27.6648 32.9605 27.6648 32.4082V1.24275C27.6648 1.04887 27.5877 0.862929 27.4506 0.725833C27.3135 0.588738 27.1276 0.511719 26.9337 0.511719Z" fill="url(#paint0_linear_2015_1548)"/>
<path d="M11.581 10.0156V33.4087H0.981033C0.787151 33.4087 0.60121 33.3317 0.464115 33.1946C0.327019 33.0575 0.25 32.8715 0.25 32.6776V10.7467C0.25 10.5528 0.327019 10.3668 0.464115 10.2297C0.60121 10.0926 0.787151 10.0156 0.981033 10.0156H11.581Z" fill="url(#paint1_linear_2015_1548)"/>
<path d="M13.6602 2.58984H16.0843V5.01398H13.6602V2.58984ZM18.4119 2.58984H20.836V5.01398H18.4119V2.58984ZM23.1636 2.58984H25.5877V5.01398H23.1636V2.58984ZM13.6602 7.34156H16.0843V9.76569H13.6602V7.34156ZM18.4119 7.34156H20.836V9.76569H18.4119V7.34156ZM23.1636 7.34156H25.5877V9.76569H23.1636V7.34156ZM13.6602 12.0933H16.0843V14.5174H13.6602V12.0933ZM18.4119 12.0933H20.836V14.5174H18.4119V12.0933ZM23.1636 12.0933H25.5877V14.5174H23.1636V12.0933ZM13.6602 16.845H16.0843V19.2691H13.6602V16.845ZM18.4119 16.845H20.836V19.2691H18.4119V16.845ZM23.1636 16.845H25.5877V19.2691H23.1636V16.845Z" fill="white" stroke="#4142D3" stroke-width="0.5"/>
<path d="M13.3281 14.5179V12.0938H15.7523V14.5179H13.3281ZM18.0798 14.5179V12.0938H20.504V14.5179H18.0798ZM13.3281 19.2696V16.8455H15.7523V19.2696H13.3281ZM18.0798 19.2696V16.8455H20.504V19.2696H18.0798ZM13.3281 24.0213V21.5972H15.7523V24.0213H13.3281ZM18.0798 24.0213V21.5972H20.504V24.0213H18.0798Z" fill="white" stroke="#4142D3" stroke-width="0.5"/>
<path d="M13.4102 31.9746V25.9679C13.4102 25.8086 13.4872 25.6558 13.6243 25.5431C13.7614 25.4305 13.9473 25.3672 14.1412 25.3672H17.0653C17.2592 25.3672 17.4451 25.4305 17.5822 25.5431C17.7193 25.6558 17.7964 25.8086 17.7964 25.9679V31.9746H14.8722H13.4102Z" fill="white"/>
<path d="M2.44364 26.7525C2.64551 26.7525 2.80916 26.5889 2.80916 26.387C2.80916 26.1851 2.64551 26.0215 2.44364 26.0215C2.24177 26.0215 2.07812 26.1851 2.07812 26.387C2.07812 26.5889 2.24177 26.7525 2.44364 26.7525Z" fill="white"/>
<path d="M3.90458 26.7525C4.10645 26.7525 4.2701 26.5889 4.2701 26.387C4.2701 26.1851 4.10645 26.0215 3.90458 26.0215C3.70271 26.0215 3.53906 26.1851 3.53906 26.387C3.53906 26.5889 3.70271 26.7525 3.90458 26.7525Z" fill="white"/>
<path d="M5.36552 26.7525C5.56739 26.7525 5.73103 26.5889 5.73103 26.387C5.73103 26.1851 5.56739 26.0215 5.36552 26.0215C5.16365 26.0215 5 26.1851 5 26.387C5 26.5889 5.16365 26.7525 5.36552 26.7525Z" fill="white"/>
<defs>
<linearGradient id="paint0_linear_2015_1548" x1="11.582" y1="18.0597" x2="41.2005" y2="29.1073" gradientUnits="userSpaceOnUse">
<stop stop-color="#4C53FE"/>
<stop offset="1" stop-color="#2B1F79"/>
</linearGradient>
<linearGradient id="paint1_linear_2015_1548" x1="-4.93948" y1="14.6248" x2="16.7844" y2="31.5211" gradientUnits="userSpaceOnUse">
<stop stop-color="#85D3FF"/>
<stop offset="1" stop-color="#05A5FF"/>
</linearGradient>
</defs>
</svg>
