<svg width="218" height="61" viewBox="0 0 218 61" fill="none" xmlns="http://www.w3.org/2000/svg">
<g opacity="0.2">
<mask id="mask0_2015_1479" style="mask-type:alpha" maskUnits="userSpaceOnUse" x="0" y="0" width="218" height="61">
<path d="M0.128906 16.9609C0.128906 8.12438 7.29235 0.960938 16.1289 0.960938H201.777C210.614 0.960938 217.777 8.12438 217.777 16.9609V60.9609H0.128906V16.9609Z" fill="#7D6BEB"/>
</mask>
<g mask="url(#mask0_2015_1479)">
<path d="M151.56 122.755C149.482 122.101 147.225 121.986 145.068 121.769C136.349 120.894 127.75 118.879 118.878 119.423C113.651 119.743 108.457 120.452 103.232 120.815C100.913 120.977 99.6321 119.623 98.7677 117.883C97.8813 116.098 97.1913 113.685 94.1985 114.113C90.4156 114.653 89.3505 117.334 88.9667 120.223C88.9111 120.641 88.8192 121.055 88.7442 121.471C88.3204 121.226 87.8416 121.029 87.4822 120.728C81.8623 116.034 82.3548 109.545 90.0881 106.756C101.801 102.534 108.27 94.598 114.719 86.2003C117.324 82.8078 120.929 79.9601 126.132 82.0694C131.504 84.2476 130.501 88.7557 129.51 92.4543C126.858 102.357 130.146 112.199 137.619 114.895C144.359 117.326 151.694 117.674 158.694 119.194C162.037 119.92 165.216 120.959 167.935 122.756H181.099C177.244 120.981 173.412 119.163 169.468 117.546C163.064 114.919 156.029 114.168 149.166 112.858C138.74 110.866 133.993 101.9 136.073 92.031C138.805 79.0721 149.676 72.0696 160.732 64.8761C170.418 58.5749 179.053 51.6186 178.88 40.1318C178.77 32.8917 175.044 26.8854 169.15 21.85C160.273 14.2666 161.404 5.92729 165.923 -2.95315C170.421 -11.7906 173.745 -20.8047 169.633 -30.5806C167.999 -34.4649 164.286 -36.3784 160.74 -38.5927C154.564 -42.4488 154.392 -46.1586 161.153 -49.2015C169.445 -52.9335 173.233 -58.5005 174.916 -66.1066C177.014 -75.5987 186.378 -78.6135 197.31 -74.1494C204.996 -71.011 211.218 -65.7963 219.259 -63.2022C224.208 -61.6054 229.11 -61.625 233.966 -63.2022V-69.3936C219.509 -63.5258 209.404 -71.114 199.163 -78.1939C192.947 -82.4914 186.191 -84.4054 178.052 -82.8851C175.308 -82.3726 170.365 -81.6336 170.336 -85.4611C170.308 -89.2632 174.572 -88.9947 177.904 -89.4414H160.271C160.734 -82.9604 164.176 -77.0565 165.411 -70.7203C167.124 -61.9242 161.822 -56.014 154.3 -51.0248C151.739 -49.3256 149.127 -47.6418 146.337 -46.2413C143.364 -44.7496 139.471 -43.0769 137.395 -46.5357C135.254 -50.1033 139.502 -51.6725 142.446 -53.0215C148.126 -55.6252 155.221 -56.5477 157.083 -63.2202C158.957 -69.94 156.057 -76.1101 154.548 -82.4617C153.999 -84.7699 153.644 -87.111 153.223 -89.4414H146.47C147.412 -87.0133 148.372 -84.5901 149.274 -82.1514C151.662 -75.6964 154.874 -69.0896 148.556 -63.0123C144.326 -58.9445 138.123 -56.5864 134.373 -52.064C129.235 -45.8678 123.889 -39.9719 115.204 -37.0309C113.192 -36.3492 110.328 -35.6622 110.489 -33.4066C110.664 -30.9615 113.54 -29.9499 115.829 -28.8841C122.872 -25.6073 130.872 -26.603 138.36 -25.3054C142.195 -24.6413 146.18 -23.7861 147.583 -20.1819C148.653 -17.4335 146.616 -15.181 144.181 -13.78C139.38 -11.0172 134.388 -8.45116 129.257 -6.15307C116.856 -0.597229 105.855 6.19041 99.6796 17.3239C98.0251 20.3063 96.7 23.5927 98.9233 26.7984C100.143 28.5565 102.405 29.2207 104.803 28.9496C109.212 28.4509 112.767 26.3162 116.396 24.3529C123.927 20.2776 131.268 15.3838 140.458 14.917C150.274 14.4189 157.56 20.231 165.391 24.189C172.025 27.5427 176.058 32.7506 174.8 39.6003C172.483 52.2196 163.229 60.8778 151.161 67.6145C147.343 69.746 142.932 71.7099 138.33 69.6415C134.086 67.7344 134.685 63.9276 135.507 60.7383C137.266 53.9172 134.299 49.86 127.358 46.1423C118.448 41.37 118.276 37.3605 125.528 31.9691C130.788 28.0594 136.904 23.9815 144.174 25.0664C155.323 26.73 161.12 34.1039 161.269 44.3482C161.288 45.6665 160.944 47.4298 162.977 48.0134C163.62 48.198 164.873 47.6834 165.406 47.163C167.533 45.0866 168.372 42.5329 168.587 39.8289C169.187 32.2864 162.984 28.8944 156.453 25.9544C151.337 23.6516 146.699 19.7037 140.317 20.5981C131.883 21.7805 126.113 27.5417 118.613 30.4461C112.077 32.9771 111.139 36.4746 115.683 41.2331C117.732 43.3784 120.268 45.2972 122.939 46.8855C133.315 53.0541 134.532 57.3696 127.707 65.2607C124.171 69.3487 119.585 73.0139 117.178 77.5262C111.66 87.8719 104.029 95.4945 90.9269 99.5231C76.9406 103.824 72.9383 114.745 81.1972 122.755H151.561L151.56 122.755ZM111 21.9593C109.169 23.4924 106.061 25.6611 104.044 23.4235C101.146 20.2087 104.99 17.5928 107.332 15.4502C117.301 6.33047 129.971 0.152885 141.758 -6.99549C146.417 -9.82089 150.751 -13.2267 152.126 -18.2037C153.388 -22.7681 148.973 -24.2466 145.282 -25.9606C144.182 -26.4715 142.311 -26.6258 142.505 -27.8868C142.576 -28.3452 144.89 -28.8152 146.188 -28.8321C153.257 -28.9244 157.778 -25.3044 157.778 -18.025C157.151 -11.0172 150.637 -5.37643 142.987 -0.926132C131.39 5.8212 120.965 13.6178 110.999 21.9593H111ZM130.683 13.4438C130.328 13.5377 129.946 13.5595 129.576 13.6147C129.707 13.2804 129.761 12.9022 129.982 12.6195C134.71 6.58351 142.507 3.7231 149.038 -0.392456C158.802 -6.54564 164.631 -18.3342 160.47 -25.2964C157.353 -30.5101 152.09 -32.6713 144.404 -32.6607C140.529 -32.6989 136.015 -31.3366 131.431 -30.2273C129.486 -29.7563 126.877 -28.7669 125.786 -30.6921C124.723 -32.5695 127.175 -33.6925 128.907 -34.4755C142.431 -40.59 163.151 -38.9683 167.409 -24.0498C169.94 -15.1805 165.203 -7.75835 158.861 -1.16804C151.539 6.44081 141.514 10.5728 130.683 13.4444L130.683 13.4438Z" fill="#7D6BEB"/>
<path d="M139.145 -89.4414H134.066C137.245 -86.1693 139.715 -82.6209 140.357 -78.2427C141.158 -72.7908 139.766 -67.7607 135.098 -64.0489C126.811 -57.4591 121.569 -48.5362 112.293 -42.7825C105.349 -38.476 97.8766 -39.5948 90.8465 -42.3639C82.492 -45.6551 74.5744 -45.0488 66.5517 -41.9077C66.0517 -41.712 65.4704 -41.6658 64.9272 -41.5496C65.0729 -42.0265 65.1416 -42.5332 65.376 -42.9761C68.1688 -48.2481 79.1248 -50.3155 87.4969 -47.2673C95.8827 -44.2132 104.276 -40.234 113.111 -46.4206C119.137 -50.6407 122.652 -56.5435 127.334 -61.6664C130.892 -65.5608 135.832 -68.8429 136.093 -74.2439C136.44 -81.4214 131.904 -86.086 125.17 -89.4409H91.3641C94.5575 -88.5046 97.7397 -87.5338 100.984 -86.7497C107.13 -85.2643 113.238 -87.5804 119.376 -87.1125C125.373 -86.6558 129.807 -83.9455 132.687 -79.5403C134.456 -76.8348 134.4 -74.0274 132.254 -71.3553C131.411 -70.3066 130.312 -69.6599 128.881 -69.8424C127.169 -70.0604 126.467 -71.2742 126.093 -72.5659C123.555 -81.318 120.593 -83.1614 110.362 -80.7546C103.681 -79.1827 98.7285 -82.1424 93.3443 -84.0033C81.6425 -88.0478 70.0815 -81.7143 70.0277 -71.0487C70.0146 -68.4758 69.8183 -65.8966 69.5345 -63.3338C69.3364 -61.5487 68.9263 -59.4972 66.0392 -59.8426C63.4002 -60.1582 62.427 -62.2293 62.5076 -64.0993C62.9558 -74.4396 65.2929 -86.4547 79.5911 -89.4403H68.9695C61.5882 -81.5159 58.4297 -72.4227 59.5873 -62.3624C60.0205 -58.6023 62.4595 -55.0841 67.6912 -55.736C73.3555 -56.4421 72.6079 -61.0351 73.2074 -64.4881C74.2931 -70.7405 73.243 -77.8067 81.575 -81.3111C87.0774 -83.6256 92.3304 -82.0357 96.7965 -79.1308C100.649 -76.6252 104.354 -75.6916 109.346 -76.1367C120.378 -77.1202 124.332 -72.4672 121.658 -62.616C119.215 -53.6204 110.612 -45.8827 103.021 -46.0211C97.354 -46.1246 93.1943 -49.5081 88.2488 -51.1871C78.606 -54.4613 70.8371 -50.9171 63.5246 -45.9877C52.4166 -38.5004 40.5199 -32.4708 25.9685 -31.3939C24.6178 -31.2942 23.012 -31.4639 22.7038 -32.7328C22.3594 -34.1524 24.0308 -34.5477 25.2634 -34.9179C32.0485 -36.954 39.1585 -38.2282 45.4966 -41.3061C54.9888 -45.9156 56.0495 -52.943 54.4493 -61.3497C52.5617 -71.2657 55.21 -80.6973 61.0793 -89.4393H55.4951C50.9971 -79.9101 51.661 -69.8089 51.099 -59.8336C50.7721 -54.0257 49.2945 -48.4476 44.3203 -44.1146C34.0337 -35.154 18.5716 -35.5307 7.14547 -44.7485C5.59157 -46.002 3.54763 -48.5336 1.26679 -46.9134C-1.03968 -45.2747 1.26241 -43.1894 2.6663 -41.5433C3.62451 -40.4191 4.5721 -39.2722 5.68033 -38.259C11.5659 -32.8782 16.8345 -26.5738 27.0824 -27.4163C33.3023 -27.9277 38.1584 -31.1965 43.5233 -33.4071C55.1363 -38.1921 66.853 -32.0199 66.853 -21.0328C66.853 -7.44587 50.454 2.13482 33.9224 -0.799858C22.4832 -2.83059 12.3503 -7.81139 0.995513 -9.8299C-5.39634 -10.9662 -13.0921 -7.25861 -14.6847 -1.83591C-16.0186 2.70616 -12.2939 6.55064 -5.44322 8.11983C4.27395 10.3458 13.3323 13.4736 19.7317 20.7036C26.4598 28.3056 28.8632 28.5655 38.3734 22.9466C46.2736 18.2793 54.3937 16.1568 63.919 19.1063C72.6304 21.8039 76.2483 19.822 76.3314 11.9654C76.4383 1.88125 81.9132 -4.59554 92.7586 -8.16787C102.088 -11.2405 106.972 -18.7146 104.63 -26.803C103.381 -31.118 99.3049 -32.8076 94.5456 -31.8867C90.2996 -31.065 91.8566 -27.8396 92.4523 -25.4773C94.0694 -19.0642 93.5037 -13.3343 86.5661 -9.17262C82.1763 -6.53926 78.0247 -3.69953 75.942 0.742805C74.3556 4.12735 72.6655 7.49703 69.6552 10.1697C63.012 16.0677 54.0356 15.0756 45.6973 15.7886C27.9274 17.3074 13.2398 10.1686 -1.49222 3.321C-4.36187 1.98734 -7.79095 0.0775681 -5.49323 -3.13987C-3.31427 -6.1902 0.483589 -5.1674 3.46825 -3.64648C13.4179 1.42237 23.082 6.76018 34.855 8.71239C44.9128 10.3803 55.0975 8.27368 59.7655 2.8669C68.747 -7.53658 71.0778 -19.3087 70.5921 -31.8421C70.294 -39.5306 75.5013 -43.0005 84.0947 -40.5555C97.8566 -36.6389 110.407 -36.9099 120.808 -46.6774C126.194 -51.734 130.403 -57.7074 136.987 -61.8272C142.741 -65.4271 145.422 -70.0238 144.302 -76.1902C143.45 -80.8777 141.161 -85.1115 139.142 -89.4403L139.145 -89.4414Z" fill="#7D6BEB"/>
<path d="M156.67 105.731C168.639 109.239 178.544 116.016 189.893 120.476C191.914 121.27 193.963 122.012 196.013 122.755H204.468C204.032 122.7 203.604 122.632 203.193 122.563C192.983 120.858 184.894 116.145 177.763 109.826C166.326 99.692 168.809 77.4553 182.317 69.4444C189.82 64.9941 197.115 60.2738 204.274 55.4288C206.383 54.0007 208.345 51.1302 205.868 49.3653C203.299 47.5361 202.224 50.7583 200.695 52.0867C197.909 54.5073 195.372 57.2569 192.158 59.1772C179.75 66.5898 168.57 74.6766 165.501 88.2493C164.959 90.6455 163.728 93.1367 160.135 92.324C157.353 91.6943 157.193 89.288 157.695 87.2153C160.444 75.8734 169.328 68.2391 179.435 61.3157C185.199 57.3672 192.207 54.337 194.962 47.9557C197.234 42.6933 194.003 37.5719 193.716 32.3508C193.478 28.0326 194.456 23.2587 191.138 19.6073C188.665 16.8854 184.341 15.3512 181.985 12.5846C175.658 5.15669 177.819 -3.21819 180.196 -11.1501C182.813 -19.8831 185.147 -28.4012 182.682 -37.4991C180.38 -45.996 180.518 -54.5136 185.121 -62.6047C185.922 -64.0121 187.171 -65.3208 189.258 -64.9457C191.415 -64.5579 191.696 -62.9325 191.686 -61.3347C191.649 -54.7698 189.329 -48.3726 190.124 -41.7049C190.871 -35.444 195.797 -30.8372 201.412 -31.9698C211.171 -33.9385 221.94 -29.624 225.417 -21.7032C228.867 -13.8429 226.94 -5.25528 229.038 2.84322C230.026 6.66011 230.691 10.5873 233.964 13.5517V1.08782C232.149 -3.10094 231.713 -7.55125 231.606 -11.9252C231.273 -25.6983 223.927 -34.5841 208.249 -38.7654C198.214 -41.4417 194.803 -47.1679 195.428 -58.705C195.65 -62.8079 197.242 -67.6475 190.727 -68.7897C184.705 -69.8454 183.095 -65.1001 181.314 -61.4657C178.798 -56.3305 174.979 -52.0861 170.532 -48.0405C166.021 -43.9372 170.777 -40.9532 173.277 -37.9585C181.565 -28.0309 180.328 -17.2683 174.896 -7.36663C168.622 4.07131 171.327 12.5671 181.07 21.3611C190.934 30.2659 192.169 44.2211 184.708 52.744C178.882 59.3985 169.798 63.2042 163.005 69.0757C154.915 76.0686 145.392 82.4648 143.91 93.0396C142.852 100.596 149.63 103.668 156.67 105.731Z" fill="#7D6BEB"/>
<path d="M138.014 -18.7654C137.887 -19.3119 136.69 -19.9347 135.876 -20.0705C129.038 -21.211 121.921 -21.0094 115.328 -23.4009C112.982 -24.2523 111.797 -22.7935 111.61 -21.0068C110.697 -12.3285 106.166 -6.12912 96.0158 -3.15465C90.0877 -1.41782 84.1966 1.11104 82.8027 6.92471C81.8276 10.9904 82.1995 15.3012 82.1089 19.5048C81.9939 24.8728 78.6979 27.4282 72.6023 26.4304C67.2106 25.5471 61.9307 23.754 56.5189 23.4591C44.8841 22.8251 37.7984 29.5189 31.3015 36.375C28.2237 39.6227 28.7538 43.2788 32.6529 46.1148C35.2275 47.988 37.9834 47.3058 40.4299 45.8231C43.3502 44.0533 45.8198 41.4964 49.0151 40.3457C65.6248 34.3634 81.7526 37.2269 96.5702 44.37C109.766 50.7312 112.642 59.3888 106.632 67.9297C101.069 75.8356 91.5079 78.1141 82.1414 80.7825C69.6195 84.3495 58.6379 89.3282 55.2494 101.591C53.4218 108.206 49.497 113.771 40.7987 114.922C32.9361 115.962 27.9562 111.536 23.0314 107.173C18.8672 103.485 15.005 99.3285 9.11442 97.4946C-1.16718 94.2936 -8.8004 98.6611 -16.0586 103.891V111.508C-13.9065 108.841 -11.9251 106.055 -8.68477 104.157C0.91927 98.5317 9.1238 99.8654 16.3726 107.851C21.2881 113.267 26.5673 118.444 32.8754 122.757H56.4714C52.9755 110.272 59.558 100.634 69.5858 92.2273C75.9889 86.8587 84.8679 84.8848 92.6261 81.3676C102.914 76.7041 111.591 70.7148 113.887 60.2816C115.572 52.6309 109.18 48.9068 103.111 45.0464C98.7186 42.2523 93.1087 40.307 92.1411 34.8742C91.9873 34.0106 92.5405 33.0562 92.7667 32.1438C93.2737 32.3501 93.9131 32.4546 94.2619 32.7825C95.0588 33.5315 95.6739 34.418 96.4333 35.1994C101.223 40.1282 107.352 43.7706 113.137 47.7466C121.047 53.182 120.804 59.7543 114.486 69.1987C106.219 81.5586 92.4623 87.7081 78.7367 94.0862C68.6457 98.7757 59.2536 112.002 64.801 122.757H72.6317C65.5742 110.285 73.4249 97.1551 87.9263 92.9743C94.3081 91.1345 101.333 90.2136 105.703 85.0498C110.792 79.0372 113.537 71.7848 119.652 66.2926C122.548 63.6921 125.642 60.9129 125.14 56.9204C124.478 51.6452 119.033 49.5116 114.989 46.5286C107.509 41.011 98.4098 36.4418 95.272 27.9736C91.0428 16.56 98.2029 7.84457 106.668 -0.122889C114.669 -7.65323 125.966 -10.8903 135.87 -15.9416C137.079 -16.5586 138.32 -17.4493 138.014 -18.7633V-18.7654ZM97.3628 6.04568C93.2712 12.3315 91.8223 19.1812 90.5872 26.1906C89.1227 34.4992 81.8545 38.3733 72.2104 35.0106C59.4298 30.5544 48.7982 31.7852 39.2967 40.3144C38.2216 41.2794 35.9845 42.6884 35.0544 41.2905C33.4474 38.8752 35.9413 36.827 37.7196 35.0832C46.7874 26.1911 57.464 24.7264 70.1565 29.3438C75.0313 31.1173 81.832 33.5878 84.811 26.7656C86.333 23.2803 86.178 19.2666 86.7812 15.4922C87.0387 10.9761 86.7043 6.23931 90.9935 2.75344C92.8105 1.27655 95.2595 -0.15472 97.6003 1.1296C99.8974 2.38952 98.3717 4.49611 97.3628 6.04568Z" fill="#7D6BEB"/>
<path d="M101.114 59.7476C99.4361 58.3757 97.2534 62.0674 95.5051 63.6546C91.7441 67.0699 87.3894 69.0455 81.9601 67.1368C76.8702 65.3474 71.9266 64.2934 66.533 66.0615C55.4313 69.7007 45.921 76.24 33.7368 78.0713C23.3183 79.6368 11.3615 74.7727 8.11995 66.2286C5.57846 59.5306 7.64866 52.3827 5.67097 45.594C2.50879 34.7402 -3.4349 25.726 -16.0586 21.0566V26.0968C-6.51706 30.0702 -2.18103 37.4388 0.217951 45.6296C3.46326 56.7084 5.33281 68.08 1.09678 79.2262C-1.50221 86.0648 -8.33661 89.6159 -16.0586 91.8519V96.1977C1.67434 84.9645 15.6519 88.6551 28.7875 101.505C35.7232 108.29 42.9508 108.315 46.8442 99.9891C52.6685 87.5326 61.6944 78.4819 77.2884 74.6905C84.7547 72.8751 93.1493 72.7584 98.8054 67.2317C101.023 65.0657 103.779 61.9268 101.115 59.7486L101.114 59.7476ZM72.9548 72.2629C62.7051 76.8342 54.7406 84.1497 44.8291 89.1034C41.2918 90.871 37.389 91.7416 32.7623 91.7622C26.0942 91.5453 19.6717 89.3793 13.7924 86.0287C12.5354 85.3125 10.7933 84.2356 11.8109 82.5996C13.1554 80.4378 15.65 80.6781 17.7765 81.4187C33.6005 86.9311 46.0304 80.571 58.3416 73.3372C62.4907 70.8996 66.7924 68.4434 72.3079 68.8312C73.4762 68.9134 74.5375 69.3664 74.53 70.1675C74.5231 70.8858 73.7343 71.9165 72.9542 72.264L72.9548 72.2629Z" fill="#7D6BEB"/>
<path d="M89.8546 47.33C77.8947 42.9986 65.2554 44.563 52.8273 45.3826C50.2971 45.5492 47.6387 47.5369 48.135 50.1284C48.4638 51.844 51.1972 51.5793 52.8017 51.2493C61.8057 49.3968 70.8666 48.2446 80.1024 49.4854C82.8402 49.853 87.055 49.5793 87.0456 52.8885C87.0356 56.3335 83.0402 56.072 80.1743 55.8566C71.6997 55.2206 63.3471 54.4349 54.96 56.9012C37.3727 62.0729 27.0305 58.2534 22.6613 42.8972C17.5002 24.7576 4.42585 15.3111 -16.0586 11.9473V14.8406C-15.9192 14.8591 -15.7811 14.8825 -15.6479 14.9186C1.61809 19.5874 15.4025 36.8979 16.2782 54.6805C16.5583 60.3663 17.819 66.05 24.2715 69.1836C31.6534 72.7687 38.5704 70.06 44.8003 66.7004C56.342 60.4756 67.5444 54.576 82.2383 59.6698C86.2205 61.0501 91.3572 59.4518 93.5087 55.5039C95.3608 52.1039 93.5531 48.6695 89.8546 47.33Z" fill="#7D6BEB"/>
<path d="M233.968 21.7752C232.369 20.2962 230.677 18.8671 229.425 17.1997C222.834 8.42062 222.639 -1.71072 221.469 -11.5906C220.404 -20.5824 211.541 -26.8285 201.282 -25.5357C192.559 -24.4365 186.117 -17.0839 185.745 -8.26708C185.508 -2.63908 184.088 3.07697 188.291 8.13999C190.555 10.8672 195.347 10.9431 197.331 13.9834C200.211 18.396 198.42 23.2293 198.787 27.8653C199.268 33.9468 201.23 39.3722 207.496 42.9477C216.733 48.2187 222.908 47.5179 233.968 39.8846V21.7752ZM223.402 43.214C216.653 44.7609 211.452 42.2231 207.46 37.7743C203.909 33.8169 203.307 29.0859 203.256 24.2823C203.232 18.8474 205.123 12.899 199.132 8.7978C195.723 6.46416 190.815 5.96126 189.286 1.44836C186.179 -7.72014 191.972 -18.8016 201.493 -21.0297C208.947 -22.7744 215.847 -17.66 218.263 -8.84849C220.781 0.337509 219.612 10.2307 225.399 18.7748C228.188 22.8919 232.021 26.6186 232.209 31.6625C232.413 37.1706 230.21 41.6533 223.402 43.214Z" fill="#7D6BEB"/>
<path d="M190.355 110.836C177.897 97.8813 178.808 83.8243 192.572 71.9243C204.01 62.0349 219.159 59.7776 233.968 56.7352V47.6055C218.902 51.7354 207.157 60.6519 194.223 67.8321C172.357 79.9708 171.957 102.878 193.271 115.181C193.972 115.586 194.767 115.874 195.518 116.216C195.029 115.68 194.555 115.133 194.048 114.609C192.825 113.346 191.574 112.103 190.355 110.836H190.355Z" fill="#7D6BEB"/>
<path d="M154.093 45.7C153.51 49.6781 153.882 55.0504 147.358 57.2016C143.166 58.5835 144.109 55.2112 143.786 53.382C142.926 48.4941 139.53 45.1169 135.021 42.326C133.364 41.3001 130.656 40.5208 131.124 38.4826C131.766 35.6848 134.905 34.4816 137.75 33.6053C147.838 30.4982 154.093 34.8806 154.093 45.7Z" fill="#7D6BEB"/>
<path d="M209.869 22.809C210.035 16.2049 211.288 9.40879 205.135 3.94525C202.403 1.51878 197.548 1.28218 195.917 -2.14957C193.842 -6.51446 197.544 -12.3955 203.549 -13.2215C210.177 -14.1329 210.737 -8.89319 211.984 -5.30919C215.185 3.88477 214.098 13.9562 219.718 22.6817C221.734 25.8095 224.631 28.594 225.304 32.2375C225.691 34.3281 224.947 36.3727 222.295 37.0697C217.563 38.3137 214.675 35.9329 212.344 32.8953C209.986 29.8232 209.649 26.3559 209.868 22.809H209.869Z" fill="#7D6BEB"/>
</g>
</g>
</svg>
