<svg width="18" height="18" viewBox="0 0 18 18" fill="none" xmlns="http://www.w3.org/2000/svg">
<g clip-path="url(#clip0_134_289)">
<path d="M12.6 7.2001C12.6 8.15486 12.2207 9.07057 11.5456 9.7457C10.8705 10.4208 9.95476 10.8001 8.99999 10.8001C8.04523 10.8001 7.12952 10.4208 6.45439 9.7457C5.7793 9.07057 5.39999 8.15486 5.39999 7.2001C5.39999 6.24533 5.7793 5.32963 6.45439 4.65449C7.12952 3.97938 8.04523 3.6001 8.99999 3.6001C9.95476 3.6001 10.8705 3.97938 11.5456 4.65449C12.2207 5.32963 12.6 6.24533 12.6 7.2001Z" fill="#4E38DB"/>
<path fill-rule="evenodd" clip-rule="evenodd" d="M8.6328 17.9928C3.83265 17.8002 0 13.8474 0 9C0 4.0293 4.0293 0 9 0C13.9707 0 18 4.0293 18 9C18 13.9707 13.9707 18 9 18H8.8767C8.79511 18 8.7138 17.9976 8.6328 17.9928ZM3.2247 14.679C3.15741 14.4858 3.13451 14.2798 3.15769 14.0765C3.18087 13.8732 3.24954 13.6777 3.35861 13.5046C3.46768 13.3315 3.61434 13.1851 3.7877 13.0765C3.96107 12.9677 4.15669 12.8995 4.36005 12.8767C7.86825 12.4884 10.1533 12.5235 13.6444 12.8848C13.8481 12.906 14.0442 12.9735 14.2178 13.0819C14.3915 13.1904 14.5381 13.337 14.6465 13.5107C14.7549 13.6843 14.8222 13.8805 14.8434 14.0841C14.8645 14.2877 14.8389 14.4935 14.7685 14.6857C16.2648 13.1719 17.1028 11.1285 17.1 9C17.1 4.52655 13.4734 0.9 9 0.9C4.52655 0.9 0.9 4.52655 0.9 9C0.9 11.2122 1.78695 13.2174 3.2247 14.679Z" fill="#4E38DB"/>
</g>
<defs>
<clipPath id="clip0_134_289">
<rect width="18" height="18" fill="white"/>
</clipPath>
</defs>
</svg>
